<svg xmlns="http://www.w3.org/2000/svg" viewBox="0 0 30.1 29.99"><defs><style>.cls-1{fill:#383838;}</style></defs><g id="Layer_2" data-name="Layer 2"><g id="OBJECTS"><path class="cls-1" d="M15,1.47A13.89,13.89,0,0,1,28.5,14.36a13.49,13.49,0,0,1-1.21,6.26,5.46,5.46,0,0,0-.27,4l.88,2.65-3.34-.68a4.77,4.77,0,0,0-1.06-.11,5.3,5.3,0,0,0-2.4.57A13.49,13.49,0,0,1,15,28.52h-.53a13.53,13.53,0,0,1,.48-27H15M15,0h-.06A15,15,0,0,0,0,14.94,15.11,15.11,0,0,0,14.4,30H15a14.84,14.84,0,0,0,6.77-1.62A3.9,3.9,0,0,1,23.5,28a4.11,4.11,0,0,1,.77.08l3.33.69,2.5.51-.8-2.42-.88-2.65a4,4,0,0,1,.21-2.94A14.88,14.88,0,0,0,30,14.29,15.34,15.34,0,0,0,15,0Z"/></g></g></svg>