<svg xmlns="http://www.w3.org/2000/svg" viewBox="0 0 137.9 137.9"><defs><style>.cls-1{fill:#383838;}.cls-2{fill:#fff;}</style></defs><g id="Layer_2" data-name="Layer 2"><g id="OBJECTS"><path class="cls-1" d="M69,2.62A66.33,66.33,0,1,1,2.62,69,66.33,66.33,0,0,1,69,2.62M69,0a69,69,0,1,0,69,69A69,69,0,0,0,69,0Z"/><path class="cls-1" d="M97.14,40.76h0m0,0L79.1,79.1l-38.34,18L58.81,58.81,97.14,40.76m5.48-5.48L96,38.39l-38.33,18-.86.4-.4.86L38.39,96l-3.11,6.6,6.6-3.11,38.33-18,.86-.4.4-.86,18-38.33,3.11-6.6Zm-5.47,2.86h0Zm0,5.25h0Z"/><polygon class="cls-1" points="80.21 81.47 38.42 101.14 58.81 58.8 101.28 38.14 80.21 81.47"/><polygon class="cls-2" points="81.36 53.53 65.49 64.13 72.29 70.32 81.36 53.53"/></g></g></svg>