<svg xmlns="http://www.w3.org/2000/svg" viewBox="0 0 36.49 33.04"><defs><style>.cls-1{fill:#383838;}</style></defs><g id="Layer_2" data-name="Layer 2"><g id="OBJECTS"><path class="cls-1" d="M25.9,1.47C31.14,1.47,35,6.18,35,11.92c0,7.35-8.39,13.19-16.78,19.3C9.86,25.11,1.47,19.27,1.47,11.92c0-5.74,3.88-10.45,9.12-10.45A9.23,9.23,0,0,1,18.24,5.3,9.26,9.26,0,0,1,25.9,1.47M25.9,0a10.82,10.82,0,0,0-7.66,3,10.78,10.78,0,0,0-7.65-3C4.65,0,0,5.24,0,11.92,0,19.77,8,25.6,16.51,31.78l.87.63.86.63.87-.63.87-.63c8.49-6.18,16.51-12,16.51-19.86C36.49,5.24,31.84,0,25.9,0Z"/></g></g></svg>