<svg viewBox="0 0 116 46" fill="none" xmlns="http://www.w3.org/2000/svg">
<path d="M47.08 11.76H46.216C43.112 12.272 40.584 13.648 38.632 15.888C37.192 17.616 35.304 20.928 32.968 25.824L30.376 31.296C27.432 37.44 24.28 41.488 20.92 43.44C18.328 44.976 14.824 45.744 10.408 45.744C4.552 45.744 1.464 43.104 1.144 37.824C0.92 35.104 1.944 32.832 4.216 31.008C6.36 29.312 8.808 28.56 11.56 28.752C16.808 29.136 19.624 31.2 20.008 34.944C19.752 34.624 19.608 34.384 19.576 34.224C17.784 31.504 15.112 30.16 11.56 30.192C9.32 30.288 7.352 30.992 5.656 32.304C3.8 33.648 2.92 35.472 3.016 37.776C3.176 42.48 5.928 44.848 11.272 44.88C16.232 44.4 20.872 41.136 25.192 35.088C27.464 31.92 29.352 28.928 30.856 26.112C32.072 23.744 33.16 21.776 34.12 20.208C35.112 18.608 35.944 17.376 36.616 16.512C39.592 12.864 42.648 11.136 45.784 11.328C42.2 9.952 38.456 8.96 34.552 8.352C30.648 7.744 26.536 7.488 22.216 7.584C16.936 7.744 14.296 10.176 14.296 14.88C14.296 17.12 15.24 18.912 17.128 20.256C18.728 21.472 20.744 22.08 23.176 22.08C24.872 22.016 26.36 21.648 27.64 20.976C28.92 20.304 30.024 19.248 30.952 17.808L31.432 17.04C31.144 20.688 28.408 22.848 23.224 23.52C22.904 23.552 22.632 23.584 22.408 23.616C22.216 23.648 22.056 23.664 21.928 23.664C19.272 23.664 17.016 22.848 15.16 21.216C13.272 19.52 12.36 17.376 12.424 14.784C12.648 9.472 16.104 6.688 22.792 6.432C25.096 6.4 27.704 6.592 30.616 7.008C33.56 7.392 36.856 8.016 40.504 8.88C41.432 9.104 42.376 9.408 43.336 9.792C44.328 10.176 45.384 10.64 46.504 11.184C46.92 11.44 47.112 11.632 47.08 11.76ZM53.9455 35.184C49.9135 40.208 47.1295 42.72 45.5935 42.72C43.7695 42.72 42.8575 41.84 42.8575 40.08C42.8575 38.928 42.9215 38.176 43.0495 37.824C44.9055 34.624 46.0095 31.648 46.3615 28.896C46.6175 27.52 46.2335 26.832 45.2095 26.832C43.5135 26.832 41.5455 28.464 39.3055 31.728C38.6975 32.944 37.9615 34.464 37.0975 36.288C36.2335 38.112 35.1935 40.256 33.9775 42.72C33.6255 42.72 33.3375 42.432 33.1135 41.856C33.0495 41.728 33.2415 40.432 33.6895 37.968C33.7535 37.648 33.9295 37.184 34.2175 36.576C34.4735 35.968 34.8255 35.216 35.2735 34.32H35.2255C35.2575 34.16 35.7855 33.248 36.8095 31.584C37.4815 30.432 37.8335 29.616 37.8655 29.136C37.8655 28.592 37.6095 27.936 37.0975 27.168C37.0335 27.136 37.0015 27.088 37.0015 27.024C37.0015 26.544 38.1855 26.304 40.5535 26.304C40.4895 26.528 40.4415 26.784 40.4095 27.072C40.4095 27.36 40.3775 27.712 40.3135 28.128C42.2335 26.496 44.0895 25.68 45.8815 25.68C47.8975 25.68 48.9055 26.752 48.9055 28.896C48.9055 30.752 48.0095 33.584 46.2175 37.392C46.2175 37.552 46.1535 37.696 46.0255 37.824C45.3855 39.168 45.0175 40.16 44.9215 40.8C44.8575 41.024 44.8895 41.216 45.0175 41.376C45.0495 41.696 45.2575 41.856 45.6415 41.856C46.9215 41.856 49.4655 39.408 53.2735 34.512C53.4975 34.256 53.7215 34.256 53.9455 34.512C54.0735 34.736 54.0735 34.96 53.9455 35.184ZM69.0651 35.664C67.4651 37.52 65.5931 39.088 63.4491 40.368C60.9211 41.84 58.6331 42.576 56.5851 42.576H55.9611C55.8011 42.544 55.6571 42.512 55.5291 42.48C55.4331 42.448 55.3531 42.432 55.2891 42.432C55.0011 42.432 54.6971 42.368 54.3771 42.24C54.0251 42.112 53.7051 41.952 53.4171 41.76C53.1291 41.568 52.8891 41.344 52.6971 41.088C52.5051 40.832 52.4091 40.56 52.4091 40.272C52.4091 40.176 52.4251 40.08 52.4571 39.984C52.4891 39.856 52.5211 39.76 52.5531 39.696C52.9691 38.288 53.5931 37.232 54.4251 36.528C55.2571 35.824 56.3451 35.472 57.6891 35.472C58.4571 35.472 59.3851 35.872 60.4731 36.672C59.9611 36.512 59.5291 36.384 59.1771 36.288C58.8251 36.16 58.5371 36.096 58.3131 36.096C57.8011 36.096 57.3211 36.208 56.8731 36.432C56.4571 36.656 56.0731 36.96 55.7211 37.344C55.4011 37.728 55.1451 38.16 54.9531 38.64C54.7611 39.12 54.6651 39.616 54.6651 40.128C54.6651 41.152 55.1611 41.664 56.1531 41.664C56.7931 41.664 57.4171 41.552 58.0251 41.328C58.6331 41.072 59.1771 40.736 59.6571 40.32C60.1691 39.872 60.5851 39.376 60.9051 38.832C61.2571 38.288 61.4811 37.696 61.5771 37.056C61.7051 36.416 61.4171 34.88 60.7131 32.448C60.2971 31.072 60.2971 29.584 60.7131 27.984C59.5611 29.392 58.5691 30.56 57.7371 31.488C56.9051 32.416 56.2331 33.136 55.7211 33.648C55.3371 34 54.9371 34.336 54.5211 34.656C54.0731 34.944 53.5931 35.216 53.0811 35.472L52.5531 34.8C53.3851 34.32 54.8251 32.864 56.8731 30.432L61.3371 25.104C61.8491 24.464 62.5691 24.144 63.4971 24.144C63.8491 24.144 64.2171 24.288 64.6011 24.576C62.7131 25.312 61.7051 26.64 61.5771 28.56C61.4811 29.264 61.8331 30.24 62.6331 31.488C63.1131 32.224 63.4811 32.832 63.7371 33.312C64.0251 33.76 64.1851 34.096 64.2171 34.32C64.4411 34.896 64.4891 35.52 64.3611 36.192C64.2011 37.408 63.7051 38.56 62.8731 39.648C64.5691 38.56 66.3611 36.976 68.2491 34.896C68.3451 34.8 68.4411 34.752 68.5371 34.752C69.1131 34.752 69.3531 34.944 69.2571 35.328C69.1611 35.424 69.0971 35.536 69.0651 35.664ZM115.032 8.112C115.224 10.992 114.216 13.296 112.008 15.024C109.992 16.656 107.544 17.376 104.664 17.184C99.4483 16.896 96.6163 14.832 96.1683 10.992C96.3283 11.248 96.4563 11.456 96.5523 11.616C96.6483 11.744 96.7283 11.872 96.7923 12C98.9043 14.656 101.528 15.904 104.664 15.744C105.816 15.68 106.872 15.488 107.832 15.168C108.824 14.816 109.736 14.336 110.568 13.728C111.464 12.992 112.136 12.176 112.584 11.28C113.064 10.384 113.272 9.376 113.208 8.256C113.112 5.888 112.312 4.112 110.808 2.928C109.336 1.712 107.432 1.136 105.096 1.2C101.416 1.232 97.9283 2.192 94.6323 4.08C91.3683 5.968 88.2483 8.768 85.2723 12.48C82.2003 16.384 79.2563 20.752 76.4403 25.584C76.7283 25.648 77.0323 25.664 77.3523 25.632C77.6723 25.6 78.0083 25.568 78.3603 25.536C79.8643 25.312 80.8083 24.4 81.1923 22.8C81.7043 23.472 81.9603 24.144 81.9603 24.816C81.9603 26.896 80.4083 27.856 77.3043 27.696C77.2403 27.696 77.1283 27.696 76.9683 27.696C76.8403 27.696 76.6643 27.664 76.4403 27.6L75.3363 27.552C74.7603 28.576 74.0563 29.872 73.2243 31.44C72.3923 33.008 71.4163 34.88 70.2963 37.056C70.2003 37.504 70.1203 37.984 70.0563 38.496C69.9923 38.976 69.9603 39.52 69.9603 40.128C69.9603 41.152 70.5843 41.664 71.8323 41.664C72.8563 41.664 74.0723 41.056 75.4803 39.84C76.3123 39.168 77.0963 38.368 77.8323 37.44C78.5683 36.512 79.2563 35.488 79.8963 34.368C80.0563 34.24 80.2003 34.176 80.3282 34.176C80.6163 34.176 80.7603 34.288 80.7603 34.512C80.7603 34.576 80.7443 34.672 80.7123 34.8C80.6803 34.896 80.6483 34.992 80.6163 35.088C79.1763 37.488 77.5923 39.36 75.8643 40.704C74.3283 41.952 73.0003 42.576 71.8803 42.576C71.3683 42.576 70.9363 42.56 70.5843 42.528C70.2323 42.496 69.9443 42.416 69.7203 42.288C68.4403 41.872 67.8003 40.768 67.8003 38.976C67.8003 36.8 69.2403 32.944 72.1203 27.408C70.1363 27.408 68.8403 28.288 68.2323 30.048C67.7523 29.664 67.5122 29.136 67.5122 28.464C67.5122 26.736 68.5683 25.728 70.6803 25.44C70.9363 25.408 71.2563 25.376 71.6403 25.344C72.0563 25.312 72.5683 25.328 73.1763 25.392C82.6483 8.528 93.0643 0.0959988 104.424 0.0959988C111.208 0.0959988 114.744 2.768 115.032 8.112ZM97.3248 34.896L94.2048 39.36C92.8608 41.376 91.4688 42.384 90.0288 42.384C88.1728 42.384 87.1488 41.488 86.9568 39.696C85.2608 41.232 83.5968 42 81.9648 42C79.6287 42 78.4607 40.56 78.4607 37.68C78.4607 34.32 79.9648 31.136 82.9728 28.128C84.8928 26.208 86.7968 25.248 88.6848 25.248C90.4128 25.248 91.4848 26.064 91.9008 27.696L92.1888 27.408C93.0208 26.672 94.2048 26.384 95.7408 26.544C94.3008 28.752 93.0848 30.768 92.0928 32.592C91.1328 34.416 90.3808 36.064 89.8368 37.536C89.1968 39.2 89.0048 40.352 89.2608 40.992C89.3888 41.344 89.6288 41.52 89.9808 41.52C91.3568 41.52 93.5808 39.088 96.6528 34.224C96.8768 33.968 97.1008 33.952 97.3248 34.176C97.5488 34.4 97.5488 34.64 97.3248 34.896ZM89.5968 28.464C89.5968 27.088 89.1488 26.4 88.2528 26.4C87.0048 26.4 85.7088 27.312 84.3648 29.136C81.9008 32.368 80.6688 35.456 80.6688 38.4C80.6688 40 81.2288 40.8 82.3488 40.8C84.5248 40.8 86.5088 38.496 88.3008 33.888C89.1648 31.744 89.5968 29.936 89.5968 28.464Z" fill="black"/>
</svg>
